<svg width="20" height="11" viewBox="0 0 20 11" fill="none" xmlns="http://www.w3.org/2000/svg">
<path d="M0.700012 4.45477C0.313413 4.45477 1.21852e-05 4.76817 1.2219e-05 5.15477C1.22527e-05 5.54137 0.313413 5.85477 0.700012 5.85477L0.700012 5.15477L0.700012 4.45477ZM18.9191 5.64975C19.1925 5.37638 19.1925 4.93316 18.9191 4.6598L14.4643 0.205025C14.191 -0.068342 13.7478 -0.0683419 13.4744 0.205025C13.201 0.478392 13.201 0.921608 13.4744 1.19497L17.4342 5.15477L13.4744 9.11457C13.201 9.38794 13.201 9.83115 13.4744 10.1045C13.7478 10.3779 14.191 10.3779 14.4643 10.1045L18.9191 5.64975ZM0.700012 5.15477L0.700012 5.85477L18.4241 5.85477L18.4241 5.15477L18.4241 4.45477L0.700012 4.45477L0.700012 5.15477Z" fill="#314259"/>
</svg>
