<svg width="30" height="30" viewBox="0 0 30 30" fill="none" xmlns="http://www.w3.org/2000/svg">
<path fill-rule="evenodd" clip-rule="evenodd" d="M11.6798 22.4085C12.7881 22.4759 13.8951 22.5024 15 22.4999C16.1047 22.5024 17.2119 22.4759 18.3203 22.4085C19.2536 22.3517 20.1391 22.0426 20.8774 21.4405C21.5885 20.8606 22.0346 20.0839 22.2566 19.2137C22.4619 18.41 22.4729 17.602 22.4829 16.8721L22.4831 16.8577C22.4915 16.2405 22.4985 15.6212 22.5 15.0014V15V14.9986C22.4985 14.3787 22.4915 13.7595 22.4831 13.1422L22.4829 13.1279C22.4729 12.398 22.4618 11.59 22.2566 10.7862C22.0346 9.91606 21.5885 9.13937 20.8774 8.5595C20.1391 7.95742 19.2536 7.6483 18.3203 7.59155C17.2119 7.52415 16.1047 7.49758 15 7.50017C13.8951 7.49758 12.7881 7.52415 11.6798 7.59155C10.7464 7.6483 9.8609 7.95742 9.12256 8.5595C8.41144 9.13937 7.96533 9.91607 7.74329 10.7862C7.53813 11.5902 7.52709 12.3983 7.51713 13.1281L7.51694 13.1422C7.50849 13.7595 7.50145 14.3787 7.5 14.9986V15V15.0014C7.50145 15.6212 7.50849 16.2405 7.51694 16.8577L7.51713 16.8719C7.52709 17.6017 7.53813 18.4099 7.74329 19.2139C7.96533 20.0839 8.41144 20.8606 9.12256 21.4405C9.8609 22.0426 10.7464 22.3517 11.6798 22.4085ZM14.9986 21.328C13.9138 21.3305 12.8313 21.3045 11.7509 21.2387C11.0338 21.1951 10.3901 20.962 9.8632 20.5324C9.37369 20.1331 9.0481 19.5874 8.87882 18.9241C8.71217 18.271 8.69905 17.5959 8.68874 16.8417C8.68033 16.2264 8.67336 15.6127 8.67193 15C8.67336 14.3872 8.68033 13.7736 8.68874 13.1582C8.69905 12.4041 8.71217 11.729 8.87882 11.0759C9.0481 10.4126 9.37369 9.86685 9.8632 9.46768C10.3901 9.03805 11.0338 8.80487 11.7509 8.76126C12.8313 8.69556 13.9138 8.66948 14.9986 8.67205H15H15.0014C16.0861 8.66948 17.1688 8.69556 18.249 8.76126C18.9663 8.80487 19.6099 9.03803 20.1367 9.46767C20.6262 9.86683 20.9519 10.4126 21.1211 11.0759C21.2878 11.729 21.3009 12.4041 21.3112 13.1582C21.3196 13.7736 21.3266 14.3871 21.3281 15C21.3266 15.6129 21.3196 16.2264 21.3112 16.8417C21.3009 17.5959 21.2878 18.271 21.1211 18.9241C20.9519 19.5874 20.6262 20.1331 20.1367 20.5324C19.6099 20.962 18.9663 21.1951 18.249 21.2387C17.1688 21.3045 16.0861 21.3305 15.0014 21.328H15H14.9986Z" fill="#00072C"/>
<path fill-rule="evenodd" clip-rule="evenodd" d="M11.3574 15.0003C11.3574 17.0122 12.9884 18.6432 15.0003 18.6432C17.0122 18.6432 18.6432 17.0122 18.6432 15.0003C18.6432 12.9884 17.0122 11.3574 15.0003 11.3574C12.9884 11.3574 11.3574 12.9884 11.3574 15.0003ZM15.0003 17.4774C13.6322 17.4774 12.5232 16.3684 12.5232 15.0003C12.5232 13.6322 13.6322 12.5232 15.0003 12.5232C16.3684 12.5232 17.4774 13.6322 17.4774 15.0003C17.4774 16.3684 16.3684 17.4774 15.0003 17.4774Z" fill="#00072C"/>
<path d="M19.9291 10.9294C19.9291 11.4028 19.5453 11.7866 19.072 11.7866C18.5986 11.7866 18.2148 11.4028 18.2148 10.9294C18.2148 10.456 18.5986 10.0723 19.072 10.0723C19.5453 10.0723 19.9291 10.456 19.9291 10.9294Z" fill="#00072C"/>
</svg>
