<svg width="30" height="30" viewBox="0 0 30 30" fill="none" xmlns="http://www.w3.org/2000/svg">
<path d="M21.4994 21.5001V16.8304C21.4994 14.5354 21.0054 12.7822 18.3279 12.7822C17.0369 12.7822 16.1763 13.4835 15.8256 14.1529H15.7938V12.9895H13.2598V21.5001H15.9054V17.2766C15.9054 16.161 16.1125 15.0932 17.4831 15.0932C18.8379 15.0932 18.8538 16.3522 18.8538 17.3404V21.4841H21.4994V21.5001Z" fill="#00072C"/>
<path d="M8.95703 12.9893H11.6027V21.4999H8.95703V12.9893Z" fill="#00072C"/>
<path d="M10.28 8.75C9.43531 8.75 8.75 9.43531 8.75 10.28C8.75 11.1247 9.43531 11.8259 10.28 11.8259C11.1247 11.8259 11.81 11.1247 11.81 10.28C11.81 9.43531 11.1247 8.75 10.28 8.75Z" fill="#00072C"/>
</svg>
