<svg width="132" height="34" viewBox="0 0 132 34" fill="none" xmlns="http://www.w3.org/2000/svg">
<g clip-path="url(#clip0_2437_90)">
<path d="M11.3638 12.2356C10.7986 12.2356 10.3436 12.6885 10.3436 13.2557V19.9898C10.3436 20.102 10.3597 20.2083 10.3937 20.3065C10.506 20.6472 10.7906 20.9077 11.1473 20.9839C11.2134 20.9999 11.2896 21.0099 11.3618 21.0099C11.5 21.0099 11.6263 20.9839 11.7486 20.9338C11.8247 20.9037 11.8969 20.8576 11.963 20.8115C12.2175 20.6271 12.3819 20.3265 12.3819 19.9898V13.2557C12.3839 12.6885 11.9249 12.2356 11.3638 12.2356Z" fill="url(#paint0_linear_2437_90)"/>
<path d="M14.7288 10.4619H14.6927C14.1416 10.4819 13.7087 10.9248 13.7087 11.482V21.7655C13.7087 21.7916 13.7087 21.8156 13.7147 21.8417C13.7508 22.3668 14.1897 22.7856 14.7288 22.7856H14.7649C15.31 22.7656 15.7489 22.3167 15.7489 21.7655V11.48C15.7489 11.4539 15.7489 11.4299 15.7429 11.4038C15.7068 10.8747 15.2639 10.4619 14.7288 10.4619Z" fill="url(#paint1_linear_2437_90)"/>
<path d="M21.5551 13.861C20.9939 13.861 20.5349 14.3139 20.5349 14.8751V18.3624C20.5349 18.9236 20.9939 19.3825 21.5551 19.3825C22.1203 19.3825 22.5792 18.9236 22.5792 18.3624V14.8751C22.5792 14.3159 22.1203 13.861 21.5551 13.861Z" fill="url(#paint2_linear_2437_90)"/>
<path d="M18.3063 12.2616C18.3003 12.2556 18.3003 12.2556 18.2963 12.2616H18.2902C18.2301 12.2456 18.158 12.2356 18.0918 12.2356C17.9535 12.2356 17.8273 12.2616 17.705 12.3117C17.699 12.3057 17.699 12.3057 17.695 12.3117C17.6188 12.3418 17.5567 12.3839 17.4906 12.43C17.236 12.6184 17.0717 12.915 17.0717 13.2557V19.9898C17.0717 20.551 17.5307 21.0099 18.0918 21.0099C18.653 21.0099 19.112 20.551 19.112 19.9898V13.2557C19.112 13.1435 19.0959 13.0373 19.0619 12.9391C18.9536 12.5963 18.663 12.3318 18.3063 12.2616Z" fill="url(#paint3_linear_2437_90)"/>
<path d="M8.91665 14.8751V18.3624C8.91665 18.9236 8.45769 19.3825 7.89651 19.3825C7.33534 19.3825 6.87638 18.9236 6.87638 18.3624V14.8751C6.87638 14.3139 7.33534 13.861 7.89651 13.861C8.45769 13.861 8.91665 14.3159 8.91665 14.8751Z" fill="url(#paint4_linear_2437_90)"/>
<path d="M29.4516 4.5936C29.4516 7.97868 27.4835 10.9048 24.6335 12.2917C23.7777 10.3336 22.3547 8.68215 20.581 7.52974C18.8935 6.43946 16.8793 5.80614 14.7288 5.80614C13.9592 5.80614 13.2036 5.88831 12.4801 6.04063C7.59187 7.0808 3.91619 11.4299 3.91619 16.6187C3.91619 17.3884 3.99836 18.1379 4.15068 18.8614C1.6254 16.9454 0 13.9131 0 10.502C0 4.69983 4.70584 0 10.506 0H28.1088C28.9626 1.32477 29.4516 2.90006 29.4516 4.5936Z" fill="url(#paint5_linear_2437_90)"/>
<path d="M29.4516 22.7375C29.4516 28.5397 24.7518 33.2435 18.9496 33.2435H1.34682C0.495035 31.9187 0 30.3374 0 28.6459C0 25.2608 1.96812 22.3387 4.82208 20.9538C5.02651 21.4288 5.27102 21.8858 5.54159 22.3247C5.57766 22.3808 5.61374 22.4309 5.64781 22.487C6.16289 23.2827 6.78418 24.0122 7.48766 24.6435C7.54377 24.6996 7.59989 24.7497 7.66202 24.8019C8.04482 25.1325 8.44766 25.4332 8.87055 25.7037C10.5581 26.8 12.5723 27.4314 14.7288 27.4314C15.4984 27.4314 16.248 27.3492 16.9715 27.1909C18.3985 26.8942 19.7252 26.313 20.8877 25.5033L24.5934 26.4573L23.5833 22.8217L23.5933 22.8057C23.6234 22.7596 23.6595 22.7095 23.6895 22.6634C24.858 20.9358 25.5394 18.8554 25.5394 16.6167V16.5245C25.5394 16.4845 25.5394 16.4484 25.5334 16.4023C25.5174 15.7088 25.4412 15.0254 25.2989 14.368C27.8242 16.2881 29.4516 19.3204 29.4516 22.7375Z" fill="url(#paint6_linear_2437_90)"/>
<path d="M44.6153 27.265C41.9898 27.265 39.9235 26.7159 38.4103 25.6156C36.8971 24.5153 36.0774 22.978 35.9572 20.9979H40.3464C40.4887 21.9459 40.9196 22.6494 41.6471 23.1023C42.3746 23.5552 43.4228 23.7837 44.7957 23.7837C47.1165 23.7837 48.2769 23.1163 48.2769 21.7855C48.2769 21.2204 48.1006 20.7855 47.7478 20.4828C47.3931 20.1802 46.8019 19.9497 45.9781 19.7874L41.9517 19.0298C38.4203 18.3444 36.6546 16.6688 36.6546 14.0053C36.6546 12.2897 37.328 10.9228 38.6829 9.9027C40.0337 8.88457 41.8896 8.3735 44.2525 8.3735C46.6535 8.3735 48.5555 8.89459 49.9585 9.93277C51.3634 10.9709 52.143 12.44 52.3054 14.338H47.9463C47.7238 13.4281 47.3049 12.7687 46.6896 12.3538C46.0743 11.941 45.1905 11.7345 44.0401 11.7345C43.0119 11.7345 42.2243 11.8949 41.6791 12.2175C41.136 12.5422 40.8634 13.0152 40.8634 13.6405C40.8634 14.1055 41.0358 14.4763 41.3785 14.7609C41.7212 15.0435 42.2644 15.2539 43.0139 15.3962L47.0985 16.1818C48.9544 16.5446 50.3172 17.1499 51.187 17.9976C52.0528 18.8454 52.4878 19.9858 52.4878 21.4168C52.4878 23.2546 51.8103 24.6856 50.4595 25.7138C49.1047 26.7519 47.1566 27.265 44.6153 27.265Z" fill="#141251"/>
<path d="M55.5101 26.9022V1.47709H60.0215V11.4359H60.1418C60.725 10.4478 61.5226 9.69427 62.5308 9.1812C63.5409 8.66612 64.7293 8.40958 66.1042 8.40958C68.383 8.40958 70.1948 9.09502 71.5376 10.4679C72.8804 11.8408 73.5498 13.6686 73.5498 15.9473V26.9043H69.0384V16.7931C69.0384 15.3601 68.6536 14.2698 67.888 13.5243C67.1203 12.7787 66.002 12.4039 64.5269 12.4039C63.0558 12.4039 61.9355 12.7787 61.1699 13.5243C60.4023 14.2698 60.0195 15.3601 60.0195 16.7931V26.9022H55.5101Z" fill="#141251"/>
<path d="M83.4184 27.2349C81.302 27.2349 79.6405 26.7199 78.44 25.6917C77.2395 24.6616 76.6402 23.3007 76.6402 21.6052C76.6402 19.8295 77.2495 18.4566 78.4701 17.4886C79.6906 16.5185 81.4523 16.0355 83.7531 16.0355H89.2927V15.308C89.2927 13.0874 88 11.979 85.4166 11.979C83.218 11.979 81.8952 12.7667 81.4523 14.34H76.9409C77.3257 12.4019 78.2416 10.9248 79.6966 9.90471C81.1477 8.88658 83.0577 8.37551 85.4166 8.37551C88.0802 8.37551 90.1084 8.97677 91.4993 10.1773C92.8942 11.3778 93.5897 13.1295 93.5897 15.4283V22.3888H95.7382V26.9002H91.1065V23.9942H89.8358C89.2125 25.0223 88.3688 25.82 87.3086 26.3852C86.2503 26.9524 84.9516 27.2349 83.4184 27.2349ZM84.0858 23.7537C85.0739 23.7537 85.9637 23.5673 86.7494 23.1945C87.535 22.8217 88.1563 22.3167 88.6113 21.6813C89.0642 21.046 89.2907 20.3345 89.2907 19.5469V19.124H83.9936C81.9534 19.124 80.9372 19.8816 80.9372 21.3947C80.9372 22.1403 81.2118 22.7215 81.767 23.1344C82.3241 23.5472 83.0957 23.7537 84.0858 23.7537Z" fill="#141251"/>
<path d="M107.453 27.265C105.513 27.265 103.825 26.8762 102.384 26.0986C100.939 25.3229 99.8307 24.2226 99.0531 22.7997C98.2755 21.3767 97.8887 19.6972 97.8887 17.7591C97.8887 15.8211 98.2695 14.1536 99.0391 12.7507C99.8047 11.3477 100.895 10.2675 102.308 9.51189C103.721 8.75431 105.376 8.37752 107.27 8.37752C109.126 8.37752 110.724 8.73627 112.052 9.45176C113.385 10.1693 114.413 11.1974 115.141 12.5402C115.864 13.883 116.229 15.4724 116.229 17.3082V18.8815H102.216C102.398 20.4147 102.937 21.5911 103.835 22.4089C104.733 23.2266 105.927 23.6334 107.421 23.6334C108.533 23.6334 109.433 23.427 110.13 23.0121C110.826 22.5993 111.315 21.98 111.599 21.1522H116.139C115.714 23.0682 114.74 24.5674 113.215 25.6476C111.696 26.7259 109.774 27.265 107.453 27.265ZM102.336 15.8231H111.902C111.74 14.5725 111.261 13.6185 110.465 12.9631C109.667 12.3077 108.603 11.979 107.27 11.979C105.958 11.979 104.879 12.3137 104.034 12.9791C103.184 13.6445 102.621 14.5945 102.336 15.8231Z" fill="#141251"/>
<path d="M120.921 26.9022V13.2517H118.684V8.74027H123.284V12.2516H124.554C125.059 11.0391 125.837 10.1212 126.887 9.49585C127.933 8.87055 129.136 8.55789 130.487 8.55789H132V12.434H130.272C128.621 12.434 127.388 12.909 126.581 13.855C125.773 14.8029 125.372 16.0636 125.372 17.6389V26.9022H120.921Z" fill="#141251"/>
</g>
<defs>
<linearGradient id="paint0_linear_2437_90" x1="-1.9789" y1="31.8339" x2="27.4567" y2="-1.72983" gradientUnits="userSpaceOnUse">
<stop stop-color="#511E98"/>
<stop offset="1" stop-color="#37ACFF"/>
</linearGradient>
<linearGradient id="paint1_linear_2437_90" x1="-0.0772801" y1="33.5016" x2="29.3583" y2="-0.0621087" gradientUnits="userSpaceOnUse">
<stop stop-color="#511E98"/>
<stop offset="1" stop-color="#37ACFF"/>
</linearGradient>
<linearGradient id="paint2_linear_2437_90" x1="3.78283" y1="36.887" x2="33.2184" y2="3.32319" gradientUnits="userSpaceOnUse">
<stop stop-color="#511E98"/>
<stop offset="1" stop-color="#37ACFF"/>
</linearGradient>
<linearGradient id="paint3_linear_2437_90" x1="1.82466" y1="35.1696" x2="31.2602" y2="1.6059" gradientUnits="userSpaceOnUse">
<stop stop-color="#511E98"/>
<stop offset="1" stop-color="#37ACFF"/>
</linearGradient>
<linearGradient id="paint4_linear_2437_90" x1="-3.93835" y1="30.1155" x2="25.4972" y2="-3.44829" gradientUnits="userSpaceOnUse">
<stop stop-color="#511E98"/>
<stop offset="1" stop-color="#37ACFF"/>
</linearGradient>
<linearGradient id="paint5_linear_2437_90" x1="-4.75753" y1="29.397" x2="24.6781" y2="-4.16673" gradientUnits="userSpaceOnUse">
<stop stop-color="#511E98"/>
<stop offset="1" stop-color="#37ACFF"/>
</linearGradient>
<linearGradient id="paint6_linear_2437_90" x1="4.60204" y1="37.6054" x2="34.0376" y2="4.04167" gradientUnits="userSpaceOnUse">
<stop stop-color="#511E98"/>
<stop offset="1" stop-color="#37ACFF"/>
</linearGradient>
<clipPath id="clip0_2437_90">
<rect width="132" height="33.2435" fill="white"/>
</clipPath>
</defs>
</svg>
