<svg width="118" height="20" viewBox="0 0 118 20" fill="none" xmlns="http://www.w3.org/2000/svg">
<path fill-rule="evenodd" clip-rule="evenodd" d="M16.1418 0C16.2999 0 16.4354 0.06777 16.5371 0.169425L19.214 2.83504C19.327 2.9367 19.3947 3.08353 19.3834 3.23037V12.2777C19.3834 16.2083 16.1869 19.3822 12.2789 19.3822H3.23159C3.08476 19.3822 2.93792 19.3144 2.83627 19.2128L0.170648 16.5472C0.0576978 16.4455 -0.0100722 16.2987 0.00122282 16.1518V7.10455C0.00122282 3.17389 3.17512 0 7.08318 0H16.1418ZM2.59907 16.581V7.10455C2.59907 4.60836 4.60958 2.59785 7.10577 2.57526H14.007C14.1087 2.57526 14.199 2.66562 14.199 2.76727V11.984C14.199 13.1926 13.2164 14.1639 12.0078 14.1752H7.13966C7.07189 14.1752 7.00412 14.2317 6.97023 14.2995L6.64268 15.1579C6.5975 15.2482 6.64268 15.3612 6.73304 15.3951C6.75563 15.4064 6.77822 15.4064 6.8121 15.4064H12.2789C14.007 15.4064 15.4189 14.0171 15.4189 12.2777C15.4189 12.2664 15.4189 12.2664 15.4189 12.2551V1.54742C15.4189 1.44576 15.3398 1.3554 15.2269 1.3554H7.09448C3.93188 1.3554 1.35662 3.90807 1.35662 7.07067C1.35662 7.08196 1.35662 7.08196 1.35662 7.09326V15.7226C1.35662 15.7678 1.37921 15.8243 1.4131 15.8582L2.27152 16.7166C2.35058 16.7957 2.46353 16.7957 2.5426 16.7166C2.57648 16.6827 2.59907 16.6375 2.59907 16.581ZM6.54102 12.6278V7.36434C6.54102 6.92383 6.90246 6.56239 7.36556 6.56239H12.629C12.7307 6.56239 12.821 6.65275 12.821 6.75441V12.0179C12.821 12.4584 12.4596 12.8424 12.0191 12.8424H6.74433C6.63138 12.8085 6.54102 12.7295 6.54102 12.6278ZM12.2789 18.0042C15.4415 18.0042 18.0054 15.429 18.0054 12.2664V3.63699C18.0054 3.59181 17.9829 3.53533 17.949 3.50145L17.0905 2.64303C17.0115 2.56396 16.8985 2.56396 16.8195 2.64303C16.7856 2.67691 16.763 2.73339 16.763 2.77857V12.2777C16.763 14.7626 14.7525 16.7844 12.2676 16.7844H12.2563H5.35505C5.2534 16.7844 5.16303 16.694 5.16303 16.5923V7.37563C5.16303 6.16707 6.1457 5.1957 7.35426 5.1844H12.2224C12.2902 5.1844 12.3579 5.12793 12.3918 5.06016L12.7194 4.20174C12.7646 4.11138 12.7194 3.99843 12.629 3.96454C12.6064 3.95325 12.5838 3.95325 12.55 3.95325H7.10577C5.36634 3.95325 3.96577 5.36512 3.96577 7.09326V17.8009C3.96577 17.9026 4.05613 17.9929 4.15778 17.9929L12.2789 18.0042ZM115.572 11.6451C115.47 11.4531 115.515 11.2159 115.696 11.0804C116.204 10.6964 116.622 10.2107 116.927 9.64592C117.288 8.97952 117.469 8.15499 117.469 7.20621C117.469 6.57369 117.367 5.97505 117.175 5.39901C116.983 4.83426 116.656 4.32598 116.215 3.93066C115.775 3.52404 115.176 3.17389 114.442 2.9367C113.708 2.6995 112.804 2.57526 111.709 2.57526H106.095C105.847 2.57526 105.655 2.77857 105.655 3.01576V16.2648C105.655 16.502 105.858 16.7053 106.095 16.7053H109.438C109.676 16.7053 109.879 16.502 109.879 16.2648V12.6278C109.879 12.3906 110.082 12.1873 110.319 12.1873H111.189C111.359 12.1873 111.517 12.289 111.584 12.4245L113.595 16.4681C113.663 16.6149 113.821 16.7166 113.99 16.7053H117.559C117.808 16.7053 118 16.5133 118 16.2648C118 16.197 117.977 16.118 117.944 16.0615C117.966 16.0728 115.572 11.6451 115.572 11.6451ZM111.347 8.93434C112.036 8.93434 112.488 8.8101 112.782 8.56161C113.075 8.30182 113.211 7.92909 113.211 7.43211C113.211 6.93513 113.075 6.56239 112.782 6.30261C112.488 6.04282 112.014 5.92987 111.347 5.92987H110.286C110.037 5.92987 109.845 6.13318 109.845 6.37037V8.48254C109.845 8.71973 110.048 8.92304 110.286 8.92304H111.347V8.93434ZM101.272 13.2716H95.7037C95.4552 13.2716 95.2632 13.0683 95.2632 12.8311V11.7694C95.2632 11.5322 95.4665 11.3289 95.7037 11.3289H100.515C100.753 11.3289 100.956 11.1256 100.956 10.8884V8.31311C100.956 8.06462 100.753 7.87261 100.515 7.87261H95.7037C95.4552 7.87261 95.2632 7.6693 95.2632 7.43211V6.52851C95.2632 6.29131 95.4665 6.088 95.7037 6.088H100.933C101.17 6.088 101.374 5.88469 101.374 5.6475V3.07224C101.374 2.82375 101.17 2.63174 100.933 2.63174H91.2986C91.0502 2.63174 90.8581 2.83504 90.8581 3.07224V16.3213C90.8581 16.5585 91.0614 16.7618 91.2986 16.7618H101.035C101.272 16.7618 101.464 16.581 101.475 16.3552L101.735 13.7799C101.758 13.4975 101.532 13.2716 101.272 13.2716ZM85.3914 8.84398C85.1993 8.99082 85.1655 9.27319 85.3123 9.46521C85.3462 9.51038 85.3801 9.54427 85.4252 9.56686C86.4531 10.2333 86.9614 11.2385 86.9614 12.5713C86.9614 13.1361 86.871 13.6669 86.6903 14.1639C86.5209 14.6722 86.1933 15.124 85.7641 15.4967C85.3236 15.8695 84.7588 16.1857 84.0586 16.4003C83.3583 16.6262 82.4885 16.7392 81.4607 16.7392H75.4857C75.2372 16.7392 75.0451 16.5359 75.0451 16.2987V3.03835C75.0451 2.80116 75.2485 2.59785 75.4857 2.59785H81.6301C82.5902 2.59785 83.3696 2.6995 84.0021 2.89152C84.6346 3.08353 85.1429 3.35461 85.5269 3.68217C85.8996 4.02102 86.1707 4.39375 86.3288 4.84555C86.487 5.28606 86.566 5.74915 86.566 6.24613C86.566 6.87865 86.4305 7.4547 86.1594 7.97426C85.9674 8.30182 85.7076 8.60679 85.3914 8.84398ZM79.1452 6.26872C79.1452 6.03153 79.3485 5.82822 79.5857 5.82822H80.896C81.4381 5.82822 81.8334 5.91858 82.0255 6.0993C82.2288 6.29131 82.3191 6.5398 82.3191 6.88995C82.3191 7.22879 82.2175 7.49987 82.0255 7.68059C81.8221 7.87261 81.4494 7.95167 80.896 7.95167H79.5744C79.326 7.95167 79.1339 7.74836 79.1339 7.51117L79.1452 6.26872ZM80.9976 13.5088C81.664 13.5088 82.1271 13.3846 82.3643 13.17C82.6015 12.9441 82.7257 12.6278 82.7257 12.2325C82.7257 11.8033 82.6015 11.4757 82.3643 11.2611C82.1271 11.0352 81.664 10.9223 80.9976 10.9223H79.5744C79.326 10.9223 79.1339 11.1256 79.1339 11.3628V13.0683C79.1339 13.3055 79.3372 13.5088 79.5744 13.5088H80.9976ZM69.6236 9.56686C69.4202 9.43132 69.3638 9.16024 69.488 8.95693C69.5106 8.91175 69.5445 8.87787 69.5897 8.84398C69.8946 8.59549 70.1657 8.30182 70.3577 7.95167C70.6288 7.4434 70.7644 6.85606 70.7644 6.22354C70.7644 5.72656 70.674 5.26347 70.5272 4.82296C70.369 4.38246 70.0979 3.99843 69.7252 3.65958C69.3525 3.33202 68.8329 3.06094 68.2004 2.86893C67.5679 2.67691 66.7772 2.57526 65.8284 2.57526H59.6727C59.4242 2.57526 59.2322 2.77857 59.2322 3.01576V16.2648C59.2322 16.502 59.4355 16.7053 59.6727 16.7053H65.6477C66.6756 16.7053 67.5453 16.581 68.2456 16.3664C68.9459 16.1405 69.5106 15.8356 69.9511 15.4628C70.3803 15.0901 70.6966 14.6383 70.8773 14.13C71.0693 13.6331 71.1484 13.1022 71.1484 12.5374C71.1597 11.2385 70.6514 10.2333 69.6236 9.56686ZM63.784 5.82822C63.5356 5.82822 63.3435 6.03153 63.3435 6.26872V7.49987C63.3435 7.73707 63.5469 7.94038 63.784 7.94038H65.0943C65.6364 7.94038 66.0205 7.85002 66.2238 7.6693C66.4158 7.49987 66.5174 7.22879 66.5174 6.87865C66.5174 6.5398 66.4271 6.28001 66.2238 6.088C66.0317 5.89598 65.6477 5.81692 65.0943 5.81692C65.1056 5.82822 63.784 5.82822 63.784 5.82822ZM66.5739 13.17C66.3367 13.3959 65.8736 13.5088 65.2072 13.5088H63.784C63.5356 13.5088 63.3435 13.3055 63.3435 13.0683V11.3628C63.3435 11.1256 63.5469 10.9223 63.784 10.9223H65.2072C65.8736 10.9223 66.3367 11.0465 66.5739 11.2611C66.8111 11.487 66.9353 11.8033 66.9353 12.2325C66.9353 12.6278 66.8111 12.9441 66.5739 13.17ZM51.2579 2.75598C52.1502 3.08353 52.8844 3.58051 53.483 4.20174C54.0816 4.83426 54.5221 5.60232 54.8271 6.49462C55.1321 7.39822 55.2902 8.42607 55.2902 9.56686C55.2902 10.7302 55.1321 11.7581 54.8271 12.6956C54.5221 13.6331 54.0591 14.4237 53.4604 15.0675C52.8392 15.7339 52.0598 16.2535 51.2014 16.5697C50.2978 16.9312 49.27 17.1006 48.0953 17.1006C46.9545 17.1006 45.9267 16.9312 45.0569 16.5923C44.2098 16.2874 43.4531 15.7904 42.8431 15.1353C42.2445 14.5028 41.804 13.7121 41.4877 12.8085C41.1828 11.9049 41.0246 10.8658 41.0246 9.7137C41.0246 8.5729 41.1828 7.54505 41.4877 6.61887C41.7927 5.69268 42.2332 4.91332 42.8544 4.25821C43.4756 3.59181 44.2437 3.07224 45.1134 2.75598C46.0057 2.39454 47.0449 2.22511 48.2195 2.22511C49.3603 2.23641 50.3769 2.40583 51.2579 2.75598ZM48.1405 13.2377C46.4801 13.2377 45.6669 12.0405 45.6669 9.66851C45.6669 7.29657 46.4914 6.0993 48.1405 6.0993C49.8008 6.0993 50.6141 7.29657 50.6141 9.66851C50.6254 12.0405 49.8008 13.2377 48.1405 13.2377ZM33.1181 2.59785H36.7212C36.9584 2.59785 37.1617 2.78986 37.1505 3.03835V11.2385C37.1505 13.17 36.6196 14.6157 35.5579 15.6097C34.4961 16.581 33.0278 17.078 31.1641 17.078C29.1988 17.078 27.7191 16.581 26.7026 15.5532C25.799 14.627 25.2681 13.3168 25.1439 11.6225C25.1326 11.3741 25.3133 11.1594 25.5618 11.1482C25.5731 11.1482 25.5731 11.1482 25.5844 11.1482H29.1875C29.4134 11.1482 29.5941 11.3176 29.628 11.5435C29.6732 12.0179 29.82 12.4019 30.0007 12.6843C30.2379 13.0457 30.6332 13.2264 31.1641 13.2264C31.695 13.2264 32.0677 13.0683 32.3049 12.752C32.5308 12.4245 32.6437 11.984 32.6437 11.4418V3.03835C32.6663 2.80116 32.8696 2.59785 33.1181 2.59785Z" fill="#012939"/>
</svg>
