<svg width="152" height="26" viewBox="0 0 152 26" fill="none" xmlns="http://www.w3.org/2000/svg">
<path d="M43.91 10.2364C43.2259 9.65361 42.3391 9.24821 41.3509 9.24821C40.6668 9.24821 39.78 9.65361 39.78 10.4391C39.78 11.3259 40.7681 11.6299 41.4522 11.8326L42.4404 12.1367C44.5181 12.7195 46.089 13.7076 46.089 16.0894C46.089 17.5589 45.6836 19.0538 44.6194 20.042C43.4286 21.0302 41.959 21.4356 40.4641 21.4356C38.5891 21.4356 36.8155 20.8528 35.3206 19.7633L36.8915 16.6975C37.8796 17.4829 38.9692 18.167 40.236 18.167C41.1229 18.167 42.111 17.6856 42.111 16.6975C42.111 15.6079 40.6414 15.2279 39.8306 15.0252C37.4489 14.3411 35.878 13.733 35.878 10.8698C35.878 7.90532 37.9557 5.92899 40.9202 5.92899C42.3897 5.92899 44.1887 6.4104 45.4556 7.11985L43.91 10.2364ZM54.4757 14.6958C54.273 13.7076 53.3862 13.1249 52.4994 13.1249C51.5112 13.1249 50.6244 13.7076 50.4217 14.6958H54.4757ZM57.7443 16.6721H50.3204C50.3204 18.1417 51.1059 18.9525 52.4994 18.9525C53.2849 18.9525 53.7916 18.7498 54.1717 18.0657H57.5163C56.9335 20.5234 54.7545 21.5116 52.4741 21.5116C49.2055 21.5116 46.7478 19.6366 46.7478 16.1907C46.7478 12.8461 49.0282 10.8698 52.2714 10.8698C55.7173 10.8698 57.6936 13.0488 57.6936 16.3934V16.6721H57.7443ZM62.077 13.2009C62.8625 11.7313 63.952 11.3259 65.3456 11.3259H66.0297V14.6704C65.4469 14.3664 65.0415 14.3664 64.5601 14.3664C62.5838 14.3664 62.1024 15.6586 62.1024 17.3309V21.3849H58.6311V11.4019H62.077V13.2009ZM71.756 16.4694L74.1377 11.4272H78.0903L72.8455 21.3089H70.5651L65.4216 11.4272H69.3742L71.756 16.4694ZM82.0177 21.3089H78.3691V11.3259H82.0177V21.3089ZM82.2204 7.98133C82.2204 9.07084 81.3336 9.95766 80.244 9.95766C79.1545 9.95766 78.2677 9.07084 78.2677 7.98133C78.2677 6.89182 79.1545 6.005 80.244 6.005C81.3336 6.005 82.2204 6.89182 82.2204 7.98133ZM91.0125 14.3917C90.4297 13.9863 89.8216 13.7076 89.1375 13.7076C87.7439 13.7076 86.6798 14.7971 86.6798 16.1654C86.6798 17.6349 87.7693 18.6231 89.1375 18.6231C89.7203 18.6231 90.3284 18.3191 90.9111 17.939V20.9035C90.0243 21.3089 89.2389 21.4862 88.4534 21.4862C85.4889 21.4862 83.0312 19.3072 83.0312 16.2667C83.0312 13.0995 85.4889 10.8445 88.6561 10.8445C89.4416 10.8445 90.3284 11.0472 91.0378 11.4272V14.3917H91.0125ZM99.6019 14.6958C99.3992 13.7076 98.5124 13.1249 97.6256 13.1249C96.6374 13.1249 95.7506 13.7076 95.5479 14.6958H99.6019ZM102.845 16.6721H95.4466C95.4466 18.1417 96.232 18.9525 97.6256 18.9525C98.4111 18.9525 98.9178 18.7498 99.2979 18.0657H102.642C102.06 20.5234 99.8806 21.5116 97.6003 21.5116C94.3317 21.5116 91.874 19.6366 91.874 16.1907C91.874 12.8461 94.1544 10.8698 97.3976 10.8698C100.843 10.8698 102.82 13.0488 102.82 16.3934V16.6721H102.845ZM109.864 21.3089H106.215V9.95766H102.946V6.79047H113.006V9.95766H109.838V21.3089H109.864ZM117.364 21.3089H113.816V11.3259H117.364V21.3089ZM117.566 7.98133C117.566 9.07084 116.679 9.95766 115.59 9.95766C114.5 9.95766 113.614 9.07084 113.614 7.98133C113.614 6.89182 114.5 6.005 115.59 6.005C116.679 6.005 117.566 6.89182 117.566 7.98133ZM123.09 21.3089H119.543V14.2904H118.453V11.4272H119.543V8.3614H123.09V11.4272H125.066V14.2904H123.09V21.3089ZM128.613 16.3681C128.613 17.6603 129.399 18.6484 130.894 18.6484C132.363 18.6484 133.174 17.6603 133.174 16.3681C133.174 15.1772 132.389 14.0877 130.894 14.0877C129.5 14.0877 128.613 15.1772 128.613 16.3681ZM136.62 21.3089H133.073V20.2194C132.49 21.2075 131.198 21.6889 130.108 21.6889C127.144 21.6889 125.066 19.2312 125.066 16.3681C125.066 13.5049 127.144 11.0472 130.007 11.0472C131.198 11.0472 132.287 11.4526 133.073 12.3394V11.3512H136.62V21.3089ZM141.257 12.7195C142.144 11.5286 143.132 11.1485 144.525 11.1485C147.186 11.1485 148.275 12.8208 148.275 15.3039V21.4356H144.728V16.5961C144.728 15.6079 144.931 14.037 143.157 14.037C141.688 14.037 141.282 15.1265 141.282 16.3174V21.4609H137.735V11.4779H141.282V12.7195H141.257ZM150.049 10.8445V11.2499H150.353C150.556 11.2499 150.936 11.2499 150.936 11.0472C150.936 10.8445 150.733 10.8445 150.53 10.8445H150.049ZM151.113 12.314H150.809L150.404 11.5286H149.998V12.314H149.796V10.5404H150.48C150.784 10.5404 151.063 10.6418 151.063 11.0218C151.063 11.3259 150.86 11.5033 150.581 11.5033L151.113 12.314ZM149.162 11.4272C149.162 12.1113 149.745 12.7195 150.454 12.7195C151.139 12.7195 151.747 12.1367 151.747 11.4272C151.747 10.7431 151.164 10.135 150.454 10.135C149.745 10.1604 149.162 10.6418 149.162 11.4272ZM148.858 11.4272C148.858 10.5404 149.542 9.85631 150.429 9.85631C151.316 9.85631 152 10.5404 152 11.4272C152 12.314 151.316 12.9982 150.429 12.9982C149.542 12.9222 148.858 12.2127 148.858 11.4272ZM2.45774 23.6653C2.45774 23.6653 3.92732 24.248 3.92732 24.8561C3.92732 24.8561 3.82597 25.3376 3.34456 25.3376C2.86314 25.3376 2.15369 24.5521 2.15369 24.1467C2.15369 23.7413 2.45774 23.6653 2.45774 23.6653ZM0.886814 16.2667C0.785464 16.1654 0.785464 16.2667 0.886814 16.2667C0.785464 16.1654 0.785466 16.1654 0.785466 16.1654C0.481415 16.2667 0 16.6468 0 17.3562C0 20.0167 7.19587 20.3207 11.1485 25.1602C11.5539 25.6416 12.238 25.9457 12.9222 25.9457C13.809 25.9457 14.6958 25.8443 15.4812 25.743C15.5826 25.743 15.6839 25.6416 15.6839 25.5403C15.6839 25.4389 15.6839 25.3376 15.6839 25.2362C10.8445 18.6484 1.67228 20.2194 0.886814 16.2667ZM11.2499 7.87998C10.7685 7.39857 9.47624 7.77863 8.79213 8.3614C8.10802 8.94416 8.38673 9.34956 8.38673 9.34956C8.96949 8.5641 9.85631 8.15869 10.4644 8.05734C10.9458 8.08268 11.2499 7.87998 11.2499 7.87998ZM26.047 9.24821C26.047 9.24821 25.0588 9.45091 24.172 8.46275C24.172 8.46275 24.5774 8.46274 24.6534 7.98133C24.5774 7.98133 25.1602 9.07085 26.047 9.24821ZM25.743 13.809C25.743 13.809 25.5403 14.8985 24.2734 14.8985C22.8798 14.8985 21.7143 13.0235 21.3089 8.58943C21.6129 9.07085 21.993 9.57759 22.1957 10.1604C22.1957 9.57759 22.4998 8.48808 21.1062 7.49992C21.1062 7.49992 24.7548 8.28538 24.8561 12.0353C24.8561 12.7195 24.4507 13.3276 24.2734 13.6063C24.2734 13.6063 24.0707 13.7076 24.172 14.0117C24.2734 14.2144 24.5774 14.2144 24.8561 13.9103C25.1349 13.6063 25.743 13.2009 25.743 13.809ZM20.6248 15.8613C20.6248 15.8613 19.6366 17.7363 18.243 17.7363C17.6603 17.7363 17.2549 17.3309 17.2549 16.8495C17.2549 16.3681 17.939 14.3917 20.8021 14.3917C21.4862 14.3917 21.993 14.4931 21.993 14.9745C22.0943 15.2785 21.4102 15.9627 20.6248 15.8613ZM20.6248 6.48642C20.6248 6.48642 20.2194 6.38507 20.3207 5.8023C20.4221 5.5996 20.4221 5.5996 20.4221 5.32089C20.4221 5.01684 20.5234 4.73812 20.7261 4.63677C20.7261 4.63677 21.1315 4.63677 21.1315 5.72629C21.1062 6.2077 20.6248 6.48642 20.6248 6.48642ZM19.3326 6.48642C18.7498 6.38507 19.1299 5.49825 18.7498 5.49825C18.5471 5.49825 18.5471 6.48641 18.3444 6.38506C17.939 6.08101 18.243 5.3969 18.243 5.09285C18.243 4.7888 18.4457 4.40873 18.1417 4.61143C17.8376 4.81414 17.6603 5.29555 17.5589 5.70095C17.4576 6.10635 17.6603 6.28371 17.863 6.79047C18.0657 7.27188 17.7616 7.09452 17.7616 7.09452C16.292 6.2077 17.3562 4.23137 17.3562 4.23137C18.0403 3.14186 19.0285 3.44591 19.0285 3.44591C19.2312 3.54726 19.2312 3.64861 19.2312 3.85131C19.2312 4.05401 19.3326 4.15536 19.5353 4.25671C19.8393 4.35806 19.9407 4.66211 19.9407 5.24487C19.9407 5.90365 19.5353 6.58777 19.3326 6.48642ZM21.6129 6.38506L24.0707 7.17053C24.0707 7.17053 24.5521 8.05734 23.5893 7.75329C22.7024 7.44924 21.8156 7.27188 21.8156 7.27188C21.8156 7.27188 21.4102 6.99316 21.6129 6.38506ZM9.47625 10.135C7.70262 10.4391 7.09452 9.93232 7.09452 9.45091C7.09452 8.05734 11.1485 6.99317 12.238 6.99317C12.4407 7.29722 12.0353 7.29722 11.934 7.77863C11.7313 8.26004 11.3512 8.46274 10.7431 8.56409C10.1604 8.66545 9.55226 8.9695 9.17219 9.24821C8.76679 9.55226 9.1722 9.72962 9.85631 9.55226C10.5404 9.34956 10.6418 9.65361 10.9458 9.55226C11.2499 9.45091 10.9458 9.07085 11.1485 9.07085C11.3512 8.9695 11.7313 9.27354 11.7313 9.27354L12.7195 9.95766L11.5286 10.5404C11.4272 10.5404 11.3259 10.6418 11.3259 10.8445C11.3259 11.0472 11.9087 11.0472 12.2127 11.0472C12.4154 11.0472 12.5168 11.4526 12.5168 11.4526C12.2127 11.858 11.3259 11.858 11.3259 11.858C11.5286 12.2634 12.6181 12.162 12.7955 12.2634C12.9982 12.2634 12.9982 12.5674 13.2009 13.0488C13.3022 13.5303 13.9863 13.733 13.9863 13.733C14.189 14.5184 13.3022 14.7211 12.6941 14.7211C9.07084 14.4931 9.47625 10.135 9.47625 10.135ZM9.85631 4.61143C9.75496 4.61143 9.75496 4.61143 9.85631 4.61143C9.55226 3.14186 10.1604 1.44424 10.1604 1.44424C10.1604 1.44424 8.69078 2.6351 8.76679 4.61143C7.47458 4.61143 5.5996 4.71279 4.51009 5.70095C2.93916 6.99317 2.73646 9.45091 2.63511 10.135C2.63511 10.135 2.63511 10.2364 2.53376 10.2364H2.4324C2.027 10.0337 1.24154 9.24821 1.84964 7.57593C2.63511 5.3969 5.01684 1.06418 9.65361 0.760127C9.65361 0.760127 11.1232 0.658779 12.0353 1.24154C12.0353 1.24154 12.1367 1.24154 12.1367 1.34289V1.44424C11.7313 1.74829 10.4644 2.91382 10.059 4.71279C10.059 4.81414 9.95766 4.81414 9.95766 4.81414C9.95766 4.61144 9.85631 4.61143 9.85631 4.61143ZM13.3276 10.4391C13.3276 10.4391 13.733 12.3141 14.6198 12.9982C14.6198 12.9982 14.6198 13.2009 14.3157 13.2009C14.0117 13.2009 13.5303 12.7955 13.3276 11.7313C13.1249 10.7431 13.3276 10.4391 13.3276 10.4391ZM14.5944 5.70095C13.5049 5.70095 13.0235 4.71279 13.0235 4.71279C13.0235 4.71279 14.3157 5.90365 16.0893 4.91549C16.0893 5.01684 15.6839 5.70095 14.5944 5.70095ZM28.226 7.29722C27.922 6.71445 27.5419 6.30905 26.6551 6.10635C25.8696 5.90365 25.1855 6.005 24.6788 6.4104L23.1079 5.82764C22.9051 5.42224 22.8038 5.04217 22.6264 4.73812C22.5251 4.43407 22.3224 4.25671 22.145 4.15536C21.0555 3.5726 18.1924 2.07768 17.1028 3.5726C17.1028 3.5726 17.0015 3.67395 17.0015 3.7753L16.5961 3.67395C16.3934 3.09118 15.8106 2.58443 15.0252 2.38173C14.5438 2.28038 14.037 2.28038 13.6316 2.48308C13.3276 2.58443 13.3276 2.9645 13.6316 3.06585L14.9238 3.54726C15.2279 3.64861 15.4052 3.95266 15.2279 4.23137C15.1265 4.53542 14.8225 4.71279 14.5438 4.53542C14.5438 4.53542 13.7583 4.33272 13.1502 4.13002C12.8461 4.02867 12.5674 4.33272 12.6688 4.61143C12.8715 5.1942 13.4542 5.8023 14.2397 6.005C14.9238 6.2077 15.6333 6.005 16.1147 5.70095L16.4187 5.8023C16.4187 6.48642 17.0015 7.37323 17.5083 7.67728C18.2937 8.15869 18.9778 7.77863 19.7886 7.27188C19.7886 7.27188 21.8663 8.84281 20.8781 13.4796C18.3191 13.7836 17.3309 14.6704 16.4441 15.6586C15.8613 15.4559 14.0623 15.2532 13.0995 15.5573C13.4036 15.2532 13.7836 14.9745 14.3917 14.7718C14.6958 14.6704 14.7971 14.4677 14.7971 14.189C14.7971 14.189 15.988 13.7836 15.988 13.4036C15.988 12.9982 14.5184 12.9982 13.9103 9.85631C13.809 9.45091 13.7076 9.1722 13.1249 8.9695C13.1249 8.9695 12.9222 8.66544 13.2262 8.28538C13.5303 7.87998 13.6316 7.80397 13.5303 7.49992C13.4289 7.19587 13.0488 7.0185 13.0488 7.0185V6.53709C13.0488 6.53709 11.858 5.65027 11.858 4.35806C11.858 3.06584 13.5303 1.59627 13.9357 1.19086V1.08952C13.9357 1.08952 13.9357 0.988167 13.8343 0.988167C13.2515 0.582766 12.162 0 10.3884 0C3.47125 0 1.90032 6.2077 0.405402 9.17219C0.405402 9.27354 0.405402 9.27355 0.405402 9.3749C1.87498 12.3394 4.25671 12.0353 4.45941 14.5944C4.56076 16.5708 4.05401 16.5708 3.67395 16.5708C3.36989 16.5708 2.88848 16.2667 2.68578 16.0894H2.58443C2.58443 16.0894 2.48308 16.1907 2.58443 16.1907C2.78713 16.6721 3.26854 17.863 4.86481 17.863C5.65027 17.863 5.85297 17.1789 5.85297 16.4694V14.189C5.85297 13.9863 5.75163 13.7836 5.65028 13.6063C5.16886 13.1249 3.978 12.0353 3.978 11.1485C3.978 10.7431 4.28205 10.5658 4.56076 10.5658C5.14352 10.5658 5.75163 11.4526 6.23304 12.6434C6.33439 12.9475 6.53709 13.1249 6.63844 13.2262H6.73979C6.73979 13.2262 6.73979 13.2262 6.73979 13.1249C6.53709 12.4407 6.53709 11.7313 6.43574 11.4526C6.43574 11.3512 6.33439 11.1485 6.23304 11.0472C5.75163 10.6418 4.56076 9.47625 4.56076 7.70262C4.56076 5.32089 8.41207 5.52359 9.19753 5.52359C9.40023 6.30905 9.88165 6.71445 10.1857 6.8158C8.99483 7.22121 6.43574 8.10802 6.43574 9.5776C6.43574 11.1485 9.09618 11.0472 9.09618 11.0472C9.09618 11.0472 8.69078 14.2144 11.6553 15.2025C11.6553 15.2025 11.1739 15.6839 9.5776 15.6839C8.10802 15.6839 7.39857 14.9998 7.0185 14.2144C7.0185 14.2144 7.0185 14.113 6.91715 14.113C6.91715 14.113 6.8158 14.113 6.8158 14.2144C6.71445 14.4171 6.71445 14.7971 6.91715 15.2025C7.32255 15.8867 7.90532 16.292 7.90532 17.1789C7.90532 17.863 7.32255 18.2684 7.0185 18.3697C7.60127 18.4711 10.287 19.1552 12.0607 20.042C12.2634 19.9407 13.8343 18.9525 13.9357 17.5843C13.9357 17.5843 14.037 16.6975 12.7448 16.5961C12.7448 16.5961 13.3276 16.3934 14.3157 16.3934C15.3039 16.3934 16.3934 17.1789 14.4171 21.3342C14.4171 21.3342 14.4171 21.3342 14.4171 21.4356C14.7211 21.6383 16.9762 23.1079 18.4711 24.5014H18.5724C18.5724 24.5014 18.6738 24.5014 18.6738 24.4001C18.8765 24.1974 19.2565 23.5133 19.4592 21.841C19.4592 21.6383 19.5606 21.5369 19.7633 21.5369C20.6501 21.2329 23.6146 20.3461 24.9068 18.5724C26.3764 16.4947 26.9845 16.1907 26.9845 16.1907C26.9845 16.1907 27.9727 15.6079 27.5673 14.113C27.3646 13.3276 26.1737 11.3512 25.0082 9.27354C25.3122 9.47624 25.5909 9.5776 25.895 9.67895C26.5791 9.88165 27.2885 9.7803 27.77 9.47625C27.8713 9.3749 27.9727 9.27354 27.9727 9.17219C27.9727 9.07084 27.8713 8.9695 27.77 8.86815L26.4777 8.38673C26.1737 8.28538 25.9963 7.90532 26.0723 7.60127C26.1737 7.29722 26.5538 7.11986 26.8578 7.19587L28.0487 7.60127C28.15 7.60127 28.2514 7.60127 28.3527 7.49992C28.3274 7.37323 28.226 7.47458 28.226 7.29722ZM10.7431 11.0218C10.7431 11.0218 10.2617 11.1232 10.3377 11.9087C10.4391 12.5928 11.0218 12.5928 11.0218 12.5928C10.5404 12.01 10.7431 11.0218 10.7431 11.0218ZM2.15369 20.8021C3.92732 21.7903 7.87998 22.9812 8.66544 25.0588C8.66544 25.0588 8.96949 25.5403 7.37323 25.5403C6.18236 25.5403 5.90365 25.2362 5.09285 24.248C3.90198 22.8545 1.44424 21.9677 1.44424 20.9035C1.36823 21.0048 1.46958 20.4221 2.15369 20.8021Z" fill="black"/>
</svg>
