<svg width="112" height="18" viewBox="0 0 112 18" fill="none" xmlns="http://www.w3.org/2000/svg">
<path d="M8.67606 0L10.624 5.99501L16.9275 5.99501L11.8278 9.70013L13.7757 15.6951L8.67606 11.99L3.5764 15.6951L5.52429 9.70013L0.424637 5.99501L6.72816 5.99501L8.67606 0Z" fill="#FF7F30"/>
<path d="M32.338 0L34.2859 5.99501L40.5894 5.99501L35.4898 9.70013L37.4377 15.6951L32.338 11.99L27.2384 15.6951L29.1863 9.70013L24.0866 5.99501L30.3901 5.99501L32.338 0Z" fill="#FF7F30"/>
<path d="M56.0003 0L57.9482 5.99501L64.2517 5.99501L59.152 9.70013L61.0999 15.6951L56.0003 11.99L50.9006 15.6951L52.8485 9.70013L47.7489 5.99501L54.0524 5.99501L56.0003 0Z" fill="#FF7F30"/>
<path d="M79.6624 0L81.6103 5.99501L87.9138 5.99501L82.8141 9.70013L84.762 15.6951L79.6624 11.99L74.5627 15.6951L76.5106 9.70013L71.411 5.99501L77.7145 5.99501L79.6624 0Z" fill="#FF7F30"/>
<path d="M103.324 0L105.271 5.99501L111.575 5.99501L106.475 9.70013L108.423 15.6951L103.324 11.99L98.2239 15.6951L100.172 9.70013L95.0721 5.99501L101.376 5.99501L103.324 0Z" fill="#FF7F30"/>
</svg>
