<svg width="54" height="54" viewBox="0 0 54 54" fill="none" xmlns="http://www.w3.org/2000/svg">
<path fill-rule="evenodd" clip-rule="evenodd" d="M26.6774 5.21802C14.8413 5.21802 5.21814 14.8411 5.21814 26.6772C5.21814 38.5134 14.8413 48.1365 26.6774 48.1365C38.5135 48.1365 48.1366 38.5134 48.1366 26.6772C48.1366 14.8411 38.5135 5.21802 26.6774 5.21802Z" fill="url(#paint0_linear_4011_107)"/>
<path fill-rule="evenodd" clip-rule="evenodd" d="M26.6772 0.5C12.2389 0.5 0.5 12.2389 0.5 26.6772C0.5 41.1156 12.2389 52.8545 26.6772 52.8545C41.1156 52.8545 52.8545 41.1156 52.8545 26.6772C52.8545 12.2389 41.1156 0.5 26.6772 0.5Z" stroke="#5E62CD" stroke-dasharray="6 4"/>
<path d="M30.7495 31.9001C30.5233 31.8994 30.3022 31.832 30.1141 31.7063C29.926 31.5806 29.7791 31.4023 29.6918 31.1936C29.6045 30.9848 29.5807 30.755 29.6233 30.5328C29.666 30.3106 29.7732 30.106 29.9316 29.9444C30.7944 29.0774 31.2787 27.9039 31.2787 26.6807C31.2787 25.4576 30.7944 24.2841 29.9316 23.4171C29.7229 23.199 29.6083 22.9076 29.6125 22.6058C29.6167 22.304 29.7393 22.016 29.9539 21.8038C30.1686 21.5915 30.458 21.4722 30.7598 21.4714C31.0617 21.4706 31.3517 21.5885 31.5674 21.7996C32.8562 23.0972 33.5795 24.8519 33.5795 26.6807C33.5795 28.5096 32.8562 30.2643 31.5674 31.5619C31.4602 31.6694 31.3327 31.7547 31.1923 31.8128C31.0519 31.8708 30.9014 31.9005 30.7495 31.9001ZM23.4134 31.5676C23.6303 31.3531 23.7531 31.0612 23.7549 30.7562C23.7566 30.4511 23.6371 30.1579 23.4226 29.941C22.5598 29.0739 22.0755 27.9005 22.0755 26.6773C22.0755 25.4541 22.5598 24.2807 23.4226 23.4136C23.5317 23.3069 23.6185 23.1794 23.6779 23.0388C23.7372 22.8981 23.768 22.7471 23.7684 22.5944C23.7688 22.4417 23.7388 22.2905 23.6801 22.1496C23.6215 22.0086 23.5354 21.8808 23.4268 21.7734C23.3183 21.6661 23.1894 21.5814 23.0478 21.5244C22.9062 21.4674 22.7547 21.4391 22.602 21.4412C22.4494 21.4433 22.2987 21.4758 22.1587 21.5367C22.0188 21.5977 21.8923 21.6859 21.7868 21.7962C20.498 23.0938 19.7747 24.8484 19.7747 26.6773C19.7747 28.5062 20.498 30.2608 21.7868 31.5584C22.0013 31.7753 22.2932 31.8981 22.5982 31.8998C22.9033 31.9016 23.1965 31.7821 23.4134 31.5676ZM35.2268 34.3516C37.1282 32.2478 38.1809 29.513 38.1809 26.6773C38.1809 23.8416 37.1282 21.1068 35.2268 19.003C35.0221 18.7768 34.7359 18.6412 34.4311 18.6259C34.1264 18.6107 33.8281 18.7172 33.6019 18.9219C33.3757 19.1267 33.24 19.4129 33.2248 19.7176C33.2096 20.0223 33.3161 20.3206 33.5208 20.5469C35.0393 22.2276 35.88 24.4121 35.88 26.6773C35.88 28.9424 35.0393 31.127 33.5208 32.8077C33.3161 33.034 33.2096 33.3323 33.2248 33.637C33.24 33.9417 33.3757 34.2279 33.6019 34.4327C33.8281 34.6374 34.1264 34.7439 34.4311 34.7286C34.7359 34.7134 35.0221 34.5778 35.2268 34.3516ZM19.7517 34.4321C19.9779 34.2275 20.1135 33.9414 20.1289 33.6368C20.1442 33.3322 20.0379 33.034 19.8334 32.8077C18.3149 31.127 17.4742 28.9424 17.4742 26.6773C17.4742 24.4121 18.3149 22.2276 19.8334 20.5469C19.9348 20.4348 20.0131 20.3039 20.0639 20.1617C20.1147 20.0194 20.1369 19.8685 20.1294 19.7176C20.1219 19.5667 20.0847 19.4188 20.02 19.2823C19.9553 19.1457 19.8643 19.0233 19.7523 18.9219C19.6403 18.8206 19.5094 18.7422 19.3671 18.6915C19.2248 18.6407 19.0739 18.6184 18.9231 18.6259C18.6183 18.6412 18.3321 18.7768 18.1274 19.003C16.226 21.1068 15.1733 23.8416 15.1733 26.6773C15.1733 29.513 16.226 32.2478 18.1274 34.3516C18.3322 34.5775 18.6183 34.713 18.9229 34.7281C19.2275 34.7432 19.5256 34.6367 19.7517 34.4321ZM26.6771 24.9517C26.3358 24.9517 26.0022 25.0529 25.7184 25.2425C25.4346 25.4321 25.2135 25.7016 25.0829 26.0169C24.9523 26.3322 24.9181 26.6792 24.9847 27.0139C25.0513 27.3487 25.2156 27.6561 25.4569 27.8975C25.6983 28.1388 26.0057 28.3031 26.3405 28.3697C26.6752 28.4363 27.0221 28.4021 27.3375 28.2715C27.6528 28.1409 27.9223 27.9197 28.1119 27.636C28.3015 27.3522 28.4027 27.0186 28.4027 26.6773C28.4027 26.2196 28.2209 25.7807 27.8973 25.4571C27.5737 25.1335 27.1348 24.9517 26.6771 24.9517Z" fill="white"/>
<defs>
<linearGradient id="paint0_linear_4011_107" x1="-1.71494" y1="72.1012" x2="62.6304" y2="25.1068" gradientUnits="userSpaceOnUse">
<stop stop-color="#7380F7"/>
<stop offset="1" stop-color="#453F9C"/>
</linearGradient>
</defs>
</svg>
