<svg width="43" height="43" viewBox="0 0 43 43" fill="none" xmlns="http://www.w3.org/2000/svg">
<path fill-rule="evenodd" clip-rule="evenodd" d="M21.4592 0C9.62312 0 0 9.62312 0 21.4592C0 33.2953 9.62312 42.9185 21.4592 42.9185C33.2953 42.9185 42.9185 33.2953 42.9185 21.4592C42.9185 9.62312 33.2953 0 21.4592 0Z" fill="url(#paint0_linear_2437_620)"/>
<path d="M18.4731 28.5481C16.4921 26.5671 14.5232 24.5679 12.5361 22.5869C12.318 22.3688 12.318 22.0053 12.5361 21.7872L14.82 19.5033C15.0381 19.2852 15.4016 19.2852 15.6197 19.5033L18.8851 22.7686L27.2816 14.366C27.5058 14.1479 27.8632 14.1479 28.0874 14.366L30.3774 16.6559C30.6015 16.8801 30.6015 17.2375 30.3774 17.4556L19.2728 28.5481C19.0547 28.7722 18.6973 28.7722 18.4731 28.5481Z" fill="white"/>
<defs>
<linearGradient id="paint0_linear_2437_620" x1="-6.93308" y1="66.8831" x2="57.4123" y2="19.8888" gradientUnits="userSpaceOnUse">
<stop stop-color="#7380F7"/>
<stop offset="1" stop-color="#453F9C"/>
</linearGradient>
</defs>
</svg>
