<svg width="43" height="43" viewBox="0 0 43 43" fill="none" xmlns="http://www.w3.org/2000/svg">
<path fill-rule="evenodd" clip-rule="evenodd" d="M21.4592 0C9.62312 0 0 9.62312 0 21.4592C0 33.2953 9.62312 42.9185 21.4592 42.9185C33.2953 42.9185 42.9185 33.2953 42.9185 21.4592C42.9185 9.62312 33.2953 0 21.4592 0Z" fill="url(#paint0_linear_4011_108)"/>
<path d="M30.4223 16.5969C30.3307 16.3762 30.1553 16.2008 29.9346 16.1091C29.826 16.0628 29.7094 16.0383 29.5913 16.0369H25.075C24.8354 16.0369 24.6057 16.132 24.4363 16.3014C24.2669 16.4708 24.1717 16.7006 24.1717 16.9401C24.1717 17.1797 24.2669 17.4094 24.4363 17.5788C24.6057 17.7482 24.8354 17.8434 25.075 17.8434H27.4144L22.3652 22.8927L19.3934 19.9119C19.3094 19.8272 19.2095 19.76 19.0995 19.7142C18.9894 19.6683 18.8713 19.6447 18.7521 19.6447C18.6328 19.6447 18.5148 19.6683 18.4047 19.7142C18.2946 19.76 18.1947 19.8272 18.1108 19.9119L12.6911 25.3315C12.6065 25.4155 12.5393 25.5154 12.4934 25.6255C12.4476 25.7355 12.424 25.8536 12.424 25.9728C12.424 26.0921 12.4476 26.2101 12.4934 26.3202C12.5393 26.4303 12.6065 26.5302 12.6911 26.6142C12.7751 26.6988 12.875 26.766 12.9851 26.8119C13.0952 26.8577 13.2132 26.8813 13.3325 26.8813C13.4517 26.8813 13.5698 26.8577 13.6798 26.8119C13.7899 26.766 13.8898 26.6988 13.9738 26.6142L18.7521 21.8268L21.7238 24.8076C21.8078 24.8923 21.9077 24.9595 22.0178 25.0053C22.1279 25.0512 22.2459 25.0748 22.3652 25.0748C22.4844 25.0748 22.6025 25.0512 22.7125 25.0053C22.8226 24.9595 22.9225 24.8923 23.0065 24.8076L28.6881 19.117V21.4565C28.6881 21.6961 28.7832 21.9258 28.9526 22.0952C29.122 22.2646 29.3518 22.3598 29.5913 22.3598C29.8309 22.3598 30.0606 22.2646 30.23 22.0952C30.3994 21.9258 30.4946 21.6961 30.4946 21.4565V16.9401C30.4932 16.8221 30.4686 16.7055 30.4223 16.5969Z" fill="white"/>
<defs>
<linearGradient id="paint0_linear_4011_108" x1="-6.93308" y1="66.8831" x2="57.4123" y2="19.8888" gradientUnits="userSpaceOnUse">
<stop stop-color="#7380F7"/>
<stop offset="1" stop-color="#453F9C"/>
</linearGradient>
</defs>
</svg>
