<svg width="13" height="13" viewBox="0 0 13 13" fill="none" xmlns="http://www.w3.org/2000/svg">
<g opacity="0.2">
<path d="M6.5 0C2.90746 0 0 2.90712 0 6.5C0 10.0925 2.90712 13 6.5 13C10.0925 13 13 10.0929 13 6.5C13 2.90751 10.0929 0 6.5 0ZM6.5 12.093C3.416 12.093 0.906979 9.58402 0.906979 6.5C0.906979 3.41598 3.416 0.906979 6.5 0.906979C9.584 0.906979 12.093 3.41598 12.093 6.5C12.093 9.58402 9.584 12.093 6.5 12.093Z" fill="black"/>
<path d="M6.50012 5.41797C6.1151 5.41797 5.84131 5.58057 5.84131 5.82013V9.07993C5.84131 9.28529 6.1151 9.4906 6.50012 9.4906C6.86803 9.4906 7.16746 9.28529 7.16746 9.07993V5.82008C7.16746 5.58054 6.86803 5.41797 6.50012 5.41797Z" fill="black"/>
<path d="M6.5004 3.40771C6.10682 3.40771 5.79883 3.69006 5.79883 4.01519C5.79883 4.34034 6.10684 4.63124 6.5004 4.63124C6.88542 4.63124 7.19346 4.34034 7.19346 4.01519C7.19346 3.69006 6.88539 3.40771 6.5004 3.40771Z" fill="black"/>
</g>
</svg>
